<svg id="Lager_2" data-name="Lager 2" xmlns="http://www.w3.org/2000/svg" xmlns:xlink="http://www.w3.org/1999/xlink" viewBox="0 0 96 96"><defs><style>.cls-1{fill:#ed1c24;}.cls-2{fill:red;}.cls-3{fill:none;}.cls-4{fill:url(#Namnlös_övertoning_7);}</style><linearGradient id="Namnlös_övertoning_7" y1="48" x2="96" y2="48" gradientUnits="userSpaceOnUse"><stop offset="0" stop-color="#66e2a3"/><stop offset="1" stop-color="#197647"/></linearGradient></defs><title>Busy</title><g id="Lager_1" data-name="Lager 1"><circle class="cls-1" cx="-37" cy="12"/></g><g id="Lager_3" data-name="Lager 3"><rect class="cls-2" x="37" y="46" width="20" height="5"/></g><path class="cls-1" d="M33.17,27.9,33,27.76V28Z"/><path class="cls-1" d="M52,31H42a9,9,0,0,0-9,9V79a9,9,0,0,0,9,9H52a9,9,0,0,0,9-9V40A9,9,0,0,0,52,31ZM47,60A12,12,0,1,1,59,48,12,12,0,0,1,47,60Z"/><line class="cls-3" x1="33" y1="91" x2="39" y2="96"/><path class="cls-3" d="M52,25H43c-4.26,0-8-2.34-8-5H27V79A15,15,0,0,0,42,94H52A15,15,0,0,0,67,79V40A15,15,0,0,0,52,25Z"/><path class="cls-3" d="M45,9A10,10,0,0,1,55,19h8a18,18,0,0,0-36,0h8A10,10,0,0,1,45,9Z"/><path class="cls-4" d="M48,0A48,48,0,1,0,96,48,48,48,0,0,0,48,0ZM45,1A18,18,0,0,1,63,19H55a10,10,0,0,0-20,0H27A18,18,0,0,1,45,1ZM67,79A15,15,0,0,1,52,94H42A15,15,0,0,1,27,79V20h8c0,2.66,3.74,5,8,5h9A15,15,0,0,1,67,40Z"/></svg>