<svg id="Lager_1" data-name="Lager 1" xmlns="http://www.w3.org/2000/svg" xmlns:xlink="http://www.w3.org/1999/xlink" viewBox="0 0 96 89.2"><defs><style>.cls-1{fill:none;stroke:#000;stroke-miterlimit:10;stroke-width:4px;}.cls-2{fill:#29abe2;}.cls-3{fill:#2e3192;}.cls-4{fill:url(#Namnlös_övertoning_2);}</style><linearGradient id="Namnlös_övertoning_2" x1="75" y1="23.07" x2="92.87" y2="23.07" gradientUnits="userSpaceOnUse"><stop offset="0" stop-color="#fff"/><stop offset="1" stop-color="#eb325a"/></linearGradient></defs><title>MagnusSmartwatch</title><path class="cls-1" d="M35.51-1.1" transform="translate(0 -3.4)"/><path class="cls-2" d="M66,22H29a8,8,0,0,0-8,8V67a8,8,0,0,0,8,8H66a8,8,0,0,0,8-8V30A8,8,0,0,0,66,22ZM46.93,65a3.53,3.53,0,1,1,3.53-3.53A3.53,3.53,0,0,1,46.93,65ZM56,58.52a12.59,12.59,0,0,0-8.92-3.8h-.13a12.59,12.59,0,0,0-8.87,3.63L34.77,55a17.37,17.37,0,0,1,24.58.24Zm6.5-5.27A20.93,20.93,0,0,0,32.86,53l-3.3-3.36A25.64,25.64,0,0,1,65.85,50Zm5.44-5.85A29.07,29.07,0,0,0,26.86,47l-3.3-3.36a33.79,33.79,0,0,1,47.73.47Z" transform="translate(0 -3.4)"/><path class="cls-2" d="M17,67V30a12,12,0,0,1,8.3-11.41L29.15,3.85a48,48,0,0,0,0,88.3L25.58,78.49A12,12,0,0,1,17,67Z" transform="translate(0 -3.4)"/><path class="cls-3" d="M69.42,78.49,65.74,92.6a48.07,48.07,0,0,0,15.43-9.92L69.88,78.34Z" transform="translate(0 -3.4)"/><polygon class="cls-4" points="92.87 27.53 92.87 27.53 75 18.6 92.87 27.53"/><path class="cls-3" d="M92.87,30.93,75,22l17.87,8.93h0L73.89,21A12,12,0,0,1,78,30V67a12,12,0,0,1-8.12,11.34l11.29,4.34a48,48,0,0,0,11.7-51.74Z" transform="translate(0 -3.4)"/><path class="cls-2" d="M65.74,3.4l4,15.2A12,12,0,0,1,73.89,21l19,9.94A48.15,48.15,0,0,0,65.74,3.4Z" transform="translate(0 -3.4)"/></svg>