<svg xmlns="http://www.w3.org/2000/svg" xmlns:xlink="http://www.w3.org/1999/xlink" viewBox="0 0 96 96"><defs><style>.cls-1{fill:url(#Namnlös_övertoning_12);}</style><linearGradient id="Namnlös_övertoning_12" y1="48" x2="96" y2="48" gradientUnits="userSpaceOnUse"><stop offset="0" stop-color="#ff8a65"/><stop offset="1" stop-color="#d61b55"/></linearGradient></defs><title>MagnusSnooze</title><g id="Lager_2" data-name="Lager 2"><path class="cls-1" d="M48,0A48,48,0,1,0,96,48,48,48,0,0,0,48,0Zm1,92A44,44,0,1,1,57,4.74a44,44,0,0,0,0,86.52A44.2,44.2,0,0,1,49,92ZM29.79,44.33V41.41H45.63V44L33.12,64.24H46v2.92H29.44V64.61L42,44.33ZM77.74,62H51V58L71.15,26.35H51.89V21h25v4.4L57.2,57.54H77.74Z"/></g></svg>