<svg id="Lager_1" data-name="Lager 1" xmlns="http://www.w3.org/2000/svg" xmlns:xlink="http://www.w3.org/1999/xlink" viewBox="0 0 96 96"><defs><style>.cls-1{fill:none;}.cls-2{fill:#cc1569;}.cls-3{fill:url(#Namnlös_övertoning_13);}</style><linearGradient id="Namnlös_övertoning_13" y1="48" x2="96" y2="48" gradientUnits="userSpaceOnUse"><stop offset="0" stop-color="#9898cd"/><stop offset="1" stop-color="#1e1e91"/></linearGradient></defs><title>MagnusVR</title><circle class="cls-1" cx="59.5" cy="50.5" r="5.5"/><circle class="cls-1" cx="35.5" cy="50.5" r="5.5"/><path class="cls-1" d="M78.75,35.62c-.22-7.65-2.33-14.14-6.32-19.1C67.06,9.83,58.55,6.19,47.83,6S28.46,9.24,23,15.93c-4.12,5-6.25,11.63-6.39,19.39A15,15,0,0,0,11,47v6A15,15,0,0,0,23.71,67.81C28.46,79.83,35.79,90,47.8,90c10.35,0,18.48-7.5,24.3-22.32A15,15,0,0,0,84,53V47A15,15,0,0,0,78.75,35.62ZM26.1,18.46C30.63,12.91,37.83,10,47,10h.78c9.49.17,16.95,3.29,21.55,9A26,26,0,0,1,74.6,33.1,14.91,14.91,0,0,0,69,32H26a14.9,14.9,0,0,0-5.28,1A25.77,25.77,0,0,1,26.1,18.46ZM47.8,86c-8.12,0-14.54-5.81-19.67-18H43V61h.05a4.47,4.47,0,0,1,8.9,0H52v7H67.68C62.64,80,56,86,47.8,86ZM77,61H53A5.5,5.5,0,0,0,42,61H19V40H77Z" transform="translate(0 0)"/><path class="cls-2" d="M69,32a14.91,14.91,0,0,1,5.6,1.1A26,26,0,0,0,69.31,19c-4.61-5.74-12.06-8.86-21.55-9H47c-9.15,0-16.36,2.92-20.88,8.47A25.77,25.77,0,0,0,20.72,33,14.9,14.9,0,0,1,26,32Z" transform="translate(0 0)"/><path class="cls-3" d="M93.45,32.56,69,13,93.45,32.56A48,48,0,1,0,48,96L37,87l11,9A48,48,0,0,0,93.45,32.56ZM41.06,88.82c-8.14-3-13.56-11.42-17.35-21A15,15,0,0,1,11,53V47a15,15,0,0,1,5.61-11.68C16.74,27.56,18.88,21,23,15.93,28.46,9.24,37,5.8,47.83,6s19.23,3.83,24.6,10.52c4,5,6.1,11.45,6.32,19.1A15,15,0,0,1,84,47v6A15,15,0,0,1,72.09,67.68C66.28,82.5,58.15,90,47.8,90a19.24,19.24,0,0,1-6.73-1.18" transform="translate(0 0)"/><path class="cls-2" d="M19,61H42A5.5,5.5,0,0,1,53,61H77V40H19ZM59.5,45A5.5,5.5,0,1,1,54,50.5,5.5,5.5,0,0,1,59.5,45Zm-24,0A5.5,5.5,0,1,1,30,50.5,5.5,5.5,0,0,1,35.5,45Z" transform="translate(0 0)"/><path class="cls-2" d="M52,61h-.05a4.47,4.47,0,0,0-8.9,0H43v7H28.13C33.25,80.19,39.68,86,47.8,86s14.84-6,19.88-18H52Z" transform="translate(0 0)"/></svg>